STARTFONT 2.1
COMMENT $XConsortium: lutBS18.bdf,v 1.8 94/04/02 16:25:45 gildea Exp $
FONT -B&H-LucidaTypewriter-Bold-R-Normal-Sans-25-180-100-100-M-150-ISO8859-1
SIZE 18 100 100
FONTBOUNDINGBOX 17 28 6 -5
STARTPROPERTIES 20
FONTNAME_REGISTRY ""
FOUNDRY "B&H"
FAMILY_NAME "LucidaTypewriter"
WEIGHT_NAME "Bold"
SLANT "R"
SETWIDTH_NAME "Normal"
ADD_STYLE_NAME "Sans"
PIXEL_SIZE 25
POINT_SIZE 180
RESOLUTION_X 100
RESOLUTION_Y 100
SPACING "M"
AVERAGE_WIDTH 150
CHARSET_REGISTRY "ISO8859"
CHARSET_ENCODING "1"
FONT_ASCENT 23
FONT_DESCENT 5
DEFAULT_CHAR 0
COPYRIGHT "Copyright Bigelow & Holmes 1986, 1985."
FACE_NAME "Lucida Sans Typewriter Bold"
ENDPROPERTIES
CHARS 190
STARTCHAR space
ENCODING 32
SWIDTH 602 0
DWIDTH 15 0
BBX 1 1 0 0
BITMAP
00
ENDCHAR
STARTCHAR exclam
ENCODING 33
SWIDTH 602 0
DWIDTH 15 0
BBX 4 18 5 0
BITMAP
f0
f0
f0
f0
f0
f0
f0
f0
70
70
70
70
70
00
00
f0
f0
f0
ENDCHAR
STARTCHAR quotedbl
ENCODING 34
SWIDTH 602 0
DWIDTH 15 0
BBX 11 7 2 12
BITMAP
fbe0
fbe0
fbe0
fbe0
71c0
71c0
71c0
ENDCHAR
STARTCHAR numbersign
ENCODING 35
SWIDTH 602 0
DWIDTH 15 0
BBX 13 18 1 0
BITMAP
0770
0770
0f70
0ee0
0ee0
7ff8
7ff8
7ff8
1dc0
1dc0
1dc0
fff0
fff0
fff0
3b80
7380
7700
7700
ENDCHAR
STARTCHAR dollar
ENCODING 36
SWIDTH 602 0
DWIDTH 15 0
BBX 12 23 2 -3
BITMAP
0700
0700
0fe0
3fe0
7fe0
f800
f000
f800
fc00
7f00
3f80
1fc0
07e0
01f0
00f0
00f0
81f0
ffe0
ffe0
7fc0
0700
0700
0700
ENDCHAR
STARTCHAR percent
ENCODING 37
SWIDTH 602 0
DWIDTH 15 0
BBX 14 18 0 0
BITMAP
3878
7c70
fef0
eee0
efe0
efc0
ffc0
7f80
3b80
0770
07f8
0ffc
0fdc
1fdc
1ddc
3dfc
38f8
7870
ENDCHAR
STARTCHAR ampersand
ENCODING 38
SWIDTH 602 0
DWIDTH 15 0
BBX 15 18 0 0
BITMAP
0f80
1fc0
3fe0
3de0
3de0
3de0
1fc0
0f80
3f1e
7f9e
779e
f7dc
f3fc
f3f8
f9f0
7ff0
3ff8
1fbe
ENDCHAR
STARTCHAR quoteright
ENCODING 39
SWIDTH 602 0
DWIDTH 15 0
BBX 4 8 5 11
BITMAP
f0
f0
f0
f0
70
70
f0
e0
ENDCHAR
STARTCHAR parenleft
ENCODING 40
SWIDTH 602 0
DWIDTH 15 0
BBX 10 23 4 -4
BITMAP
00c0
07c0
0fc0
1f00
3e00
7c00
7800
7800
f000
f000
f000
f000
f000
f000
f000
7800
7800
7800
3c00
1e00
0f80
07c0
00c0
ENDCHAR
STARTCHAR parenright
ENCODING 41
SWIDTH 602 0
DWIDTH 15 0
BBX 10 23 1 -4
BITMAP
c000
f800
7c00
1e00
0f00
0700
0780
0780
03c0
03c0
03c0
03c0
03c0
03c0
03c0
0780
0780
0f80
1f00
3e00
fc00
f800
e000
ENDCHAR
STARTCHAR asterisk
ENCODING 42
SWIDTH 602 0
DWIDTH 15 0
BBX 11 11 2 7
BITMAP
0e00
0e00
4440
64c0
f1e0
f1e0
0900
1b00
7b80
31c0
1100
ENDCHAR
STARTCHAR plus
ENCODING 43
SWIDTH 602 0
DWIDTH 15 0
BBX 13 13 1 0
BITMAP
0700
0700
0700
0700
0700
fff8
fff8
fff8
0700
0700
0700
0700
0700
ENDCHAR
STARTCHAR comma
ENCODING 44
SWIDTH 602 0
DWIDTH 15 0
BBX 4 8 5 -4
BITMAP
f0
f0
f0
f0
70
70
f0
e0
ENDCHAR
STARTCHAR minus
ENCODING 45
SWIDTH 602 0
DWIDTH 15 0
BBX 13 3 1 5
BITMAP
fff8
fff8
fff8
ENDCHAR
STARTCHAR period
ENCODING 46
SWIDTH 602 0
DWIDTH 15 0
BBX 4 4 5 0
BITMAP
f0
f0
f0
f0
ENDCHAR
STARTCHAR slash
ENCODING 47
SWIDTH 602 0
DWIDTH 15 0
BBX 15 23 0 -4
BITMAP
001e
001c
003c
0038
0078
0070
00f0
00e0
01e0
01c0
03c0
0380
0780
0700
0f00
0e00
1e00
1c00
3800
3800
7000
7000
e000
ENDCHAR
STARTCHAR zero
ENCODING 48
SWIDTH 602 0
DWIDTH 15 0
BBX 13 18 1 0
BITMAP
0f80
3fe0
3fe0
78f0
78f0
f078
f078
f078
f078
f078
f078
f078
f078
78f0
78f0
3fe0
3fe0
0f80
ENDCHAR
STARTCHAR one
ENCODING 49
SWIDTH 602 0
DWIDTH 15 0
BBX 12 18 2 0
BITMAP
ff00
ff00
ff00
0f00
0f00
0f00
0f00
0f00
0f00
0f00
0f00
0f00
0f00
0f00
0f00
fff0
fff0
fff0
ENDCHAR
STARTCHAR two
ENCODING 50
SWIDTH 602 0
DWIDTH 15 0
BBX 11 18 2 0
BITMAP
3f00
7fc0
7fc0
43e0
01e0
01e0
01e0
03c0
07c0
0780
0f00
1e00
3c00
7800
f000
ffe0
ffe0
ffe0
ENDCHAR
STARTCHAR three
ENCODING 51
SWIDTH 602 0
DWIDTH 15 0
BBX 11 18 2 0
BITMAP
7f00
ffc0
ffe0
83e0
01e0
01e0
07c0
3f80
3e00
3f80
07c0
01e0
01e0
01e0
83e0
ffc0
ff80
7e00
ENDCHAR
STARTCHAR four
ENCODING 52
SWIDTH 602 0
DWIDTH 15 0
BBX 13 18 1 0
BITMAP
03e0
03e0
07e0
0fe0
0fe0
1fe0
3de0
39e0
79e0
f1e0
fff8
fff8
fff8
fff8
01e0
01e0
01e0
01e0
ENDCHAR
STARTCHAR five
ENCODING 53
SWIDTH 602 0
DWIDTH 15 0
BBX 10 18 3 0
BITMAP
ffc0
ffc0
ffc0
e000
e000
e000
f800
ff00
ff80
0f80
07c0
03c0
03c0
03c0
8780
ff80
ff00
7c00
ENDCHAR
STARTCHAR six
ENCODING 54
SWIDTH 602 0
DWIDTH 15 0
BBX 13 18 1 0
BITMAP
03f0
0ff0
3ff0
3e10
7800
7800
f000
f3c0
fff0
fff0
f8f8
f078
f078
7078
78f8
3ff0
1fe0
0fc0
ENDCHAR
STARTCHAR seven
ENCODING 55
SWIDTH 602 0
DWIDTH 15 0
BBX 11 18 3 0
BITMAP
ffe0
ffe0
ffe0
01e0
01e0
03c0
0780
0780
0f00
0e00
1e00
3c00
3c00
3c00
7800
7800
7800
7800
ENDCHAR
STARTCHAR eight
ENCODING 56
SWIDTH 602 0
DWIDTH 15 0
BBX 12 18 2 0
BITMAP
0f80
3fc0
3fe0
79e0
79e0
7de0
7fc0
3f80
1f80
3fc0
73e0
f1f0
f0f0
f0f0
f9f0
7fe0
7fc0
1f80
ENDCHAR
STARTCHAR nine
ENCODING 57
SWIDTH 602 0
DWIDTH 15 0
BBX 13 18 1 0
BITMAP
1f80
3fc0
7fe0
f8f0
f070
f078
f078
f8f8
7ff8
7ff8
1e78
0078
00f0
00f0
43e0
7fe0
7f80
7e00
ENDCHAR
STARTCHAR colon
ENCODING 58
SWIDTH 602 0
DWIDTH 15 0
BBX 4 13 5 0
BITMAP
f0
f0
f0
f0
00
00
00
00
00
f0
f0
f0
f0
ENDCHAR
STARTCHAR semicolon
ENCODING 59
SWIDTH 602 0
DWIDTH 15 0
BBX 4 17 5 -4
BITMAP
f0
f0
f0
f0
00
00
00
00
00
f0
f0
f0
f0
70
70
e0
c0
ENDCHAR
STARTCHAR less
ENCODING 60
SWIDTH 602 0
DWIDTH 15 0
BBX 13 13 1 0
BITMAP
0008
0038
00f8
03f0
0fc0
3f00
fc00
3f00
0fc0
03f0
00f8
0038
0008
ENDCHAR
STARTCHAR equal
ENCODING 61
SWIDTH 602 0
DWIDTH 15 0
BBX 13 9 1 2
BITMAP
fff8
fff8
fff8
0000
0000
0000
fff8
fff8
fff8
ENDCHAR
STARTCHAR greater
ENCODING 62
SWIDTH 602 0
DWIDTH 15 0
BBX 13 13 1 0
BITMAP
8000
e000
f800
7e00
1f80
07e0
01f8
07e0
1f80
7e00
f800
e000
8000
ENDCHAR
STARTCHAR question
ENCODING 63
SWIDTH 602 0
DWIDTH 15 0
BBX 12 18 2 0
BITMAP
3f80
ffe0
fff0
c1f0
c0f0
c0f0
01e0
03e0
0fc0
1f00
3e00
3c00
3c00
0000
0000
3c00
3c00
3c00
ENDCHAR
STARTCHAR at
ENCODING 64
SWIDTH 602 0
DWIDTH 15 0
BBX 14 18 1 0
BITMAP
07e0
1ff0
3ff8
3c78
7bb8
77f8
e7f8
ef38
ee38
ee78
effc
effc
f7bc
7000
7840
3fc0
3fc0
0f80
ENDCHAR
STARTCHAR A
ENCODING 65
SWIDTH 602 0
DWIDTH 15 0
BBX 15 18 0 0
BITMAP
03c0
07c0
07e0
07e0
0fe0
0ff0
0ef0
1cf0
1cf0
1c78
3878
3ff8
3ffc
7ffc
703c
703c
e01e
e01e
ENDCHAR
STARTCHAR B
ENCODING 66
SWIDTH 602 0
DWIDTH 15 0
BBX 13 18 1 0
BITMAP
ffc0
ffe0
fff0
f0f0
f0f0
f0f0
f1e0
ffc0
ff80
ffe0
f1f0
f078
f078
f078
f0f8
fff0
fff0
ffc0
ENDCHAR
STARTCHAR C
ENCODING 67
SWIDTH 602 0
DWIDTH 15 0
BBX 14 18 0 0
BITMAP
03fc
1ffc
3ffc
7e0c
7c00
7800
f000
f000
f000
f000
f000
f000
7800
7c00
7e04
3ffc
1ffc
03f0
ENDCHAR
STARTCHAR D
ENCODING 68
SWIDTH 602 0
DWIDTH 15 0
BBX 13 18 1 0
BITMAP
ff80
ffe0
fff0
f1f0
f0f8
f078
f078
f078
f078
f078
f078
f078
f078
f0f0
f1f0
ffe0
ffc0
ff00
ENDCHAR
STARTCHAR E
ENCODING 69
SWIDTH 602 0
DWIDTH 15 0
BBX 12 18 2 0
BITMAP
ffe0
ffe0
ffe0
f000
f000
f000
f000
ffc0
ffc0
ffc0
f000
f000
f000
f000
f000
fff0
fff0
fff0
ENDCHAR
STARTCHAR F
ENCODING 70
SWIDTH 602 0
DWIDTH 15 0
BBX 13 18 2 0
BITMAP
fff8
fff8
fff8
f000
f000
f000
f000
f000
fff0
ffe0
ffe0
f000
f000
f000
f000
f000
f000
f000
ENDCHAR
STARTCHAR G
ENCODING 71
SWIDTH 602 0
DWIDTH 15 0
BBX 14 18 0 0
BITMAP
03f8
1ffc
3ffc
7e04
7c00
7800
f000
f000
f000
f03c
f03c
f03c
f83c
783c
7e3c
3ffc
1ffc
07f0
ENDCHAR
STARTCHAR H
ENCODING 72
SWIDTH 602 0
DWIDTH 15 0
BBX 13 18 1 0
BITMAP
f078
f078
f078
f078
f078
f078
f078
fff8
fff8
fff8
f078
f078
f078
f078
f078
f078
f078
f078
ENDCHAR
STARTCHAR I
ENCODING 73
SWIDTH 602 0
DWIDTH 15 0
BBX 12 18 1 0
BITMAP
fff0
fff0
fff0
0f00
0f00
0f00
0f00
0f00
0f00
0f00
0f00
0f00
0f00
0f00
0f00
fff0
fff0
fff0
ENDCHAR
STARTCHAR J
ENCODING 74
SWIDTH 602 0
DWIDTH 15 0
BBX 11 18 2 0
BITMAP
7fe0
7fe0
7fe0
01e0
01e0
01e0
01e0
01e0
01e0
01e0
01e0
01e0
01e0
01e0
83e0
ffc0
ff80
ff00
ENDCHAR
STARTCHAR K
ENCODING 75
SWIDTH 602 0
DWIDTH 15 0
BBX 14 18 1 0
BITMAP
f03c
f078
f0f0
f0e0
f1e0
f3c0
f780
ff00
ff00
ff80
ff80
f7c0
f3e0
f1e0
f1f0
f0f8
f0f8
f07c
ENDCHAR
STARTCHAR L
ENCODING 76
SWIDTH 602 0
DWIDTH 15 0
BBX 12 18 3 0
BITMAP
f000
f000
f000
f000
f000
f000
f000
f000
f000
f000
f000
f000
f000
f000
f000
fff0
fff0
fff0
ENDCHAR
STARTCHAR M
ENCODING 77
SWIDTH 602 0
DWIDTH 15 0
BBX 14 18 1 0
BITMAP
f87c
f87c
f8fc
f8fc
fcfc
fcfc
fdfc
fdfc
effc
effc
efbc
efbc
efbc
efbc
e7bc
e7bc
e73c
e03c
ENDCHAR
STARTCHAR N
ENCODING 78
SWIDTH 602 0
DWIDTH 15 0
BBX 12 18 1 0
BITMAP
f070
f870
f870
fc70
fc70
fe70
fe70
ff70
ef70
eff0
e7f0
e7f0
e3f0
e3f0
e1f0
e1f0
e1f0
e0f0
ENDCHAR
STARTCHAR O
ENCODING 79
SWIDTH 602 0
DWIDTH 15 0
BBX 14 18 1 0
BITMAP
0fc0
1fe0
3ff0
7878
7878
f03c
f03c
f03c
f03c
f03c
f03c
f03c
f03c
7878
7878
3ff0
1fe0
0fc0
ENDCHAR
STARTCHAR P
ENCODING 80
SWIDTH 602 0
DWIDTH 15 0
BBX 13 18 2 0
BITMAP
ffc0
fff0
fff0
f0f8
f078
f078
f078
f078
f0f0
fff0
ffe0
ff80
f000
f000
f000
f000
f000
f000
ENDCHAR
STARTCHAR Q
ENCODING 81
SWIDTH 602 0
DWIDTH 15 0
BBX 15 22 1 -4
BITMAP
0fc0
1fe0
3ff0
7878
7878
f03c
f03c
f03c
f03c
f03c
f03c
f03c
f03c
7878
7878
3ff0
1fe0
0fc0
00fe
007c
003c
0008
ENDCHAR
STARTCHAR R
ENCODING 82
SWIDTH 602 0
DWIDTH 15 0
BBX 13 18 2 0
BITMAP
ffc0
ffe0
fff0
f1f0
f0f0
f0f0
f0f0
f1e0
f3c0
ff80
ff80
ffc0
f7c0
f3e0
f1e0
f1f0
f0f0
f078
ENDCHAR
STARTCHAR S
ENCODING 83
SWIDTH 602 0
DWIDTH 15 0
BBX 13 18 1 0
BITMAP
1fe0
7ff0
7ff0
f830
f000
f800
fe00
7f80
3fc0
0ff0
03f0
00f8
0078
0078
c0f8
fff0
ffe0
7f80
ENDCHAR
STARTCHAR T
ENCODING 84
SWIDTH 602 0
DWIDTH 15 0
BBX 14 18 1 0
BITMAP
fffc
fffc
fffc
0780
0780
0780
0780
0780
0780
0780
0780
0780
0780
0780
0780
0780
0780
0780
ENDCHAR
STARTCHAR U
ENCODING 85
SWIDTH 602 0
DWIDTH 15 0
BBX 12 18 1 0
BITMAP
f0f0
f0f0
f0f0
f0f0
f0f0
f0f0
f0f0
f0f0
f0f0
f0f0
f0f0
f0f0
f0f0
f0f0
f9f0
7fe0
7fe0
1f80
ENDCHAR
STARTCHAR V
ENCODING 86
SWIDTH 602 0
DWIDTH 15 0
BBX 15 18 0 0
BITMAP
f00e
f80e
781c
781c
781c
3c38
3c38
3c38
3e70
1e70
1e70
1ee0
0fe0
0fe0
0fe0
07c0
07c0
07c0
ENDCHAR
STARTCHAR W
ENCODING 87
SWIDTH 602 0
DWIDTH 15 0
BBX 15 18 0 0
BITMAP
f006
f3c6
f3c6
f3ce
73ce
7fcc
7fec
7fec
7fec
7fec
7efc
3efc
3efc
3efc
3ef8
3c78
3c78
3c78
ENDCHAR
STARTCHAR X
ENCODING 88
SWIDTH 602 0
DWIDTH 15 0
BBX 14 18 1 0
BITMAP
f83c
7838
7c70
3c70
3ee0
1fe0
1fc0
0fc0
0780
07c0
0fc0
1fe0
1de0
3df0
38f0
78f8
f078
e07c
ENDCHAR
STARTCHAR Y
ENCODING 89
SWIDTH 602 0
DWIDTH 15 0
BBX 16 18 0 0
BITMAP
f80f
780e
7c1e
3c1c
3e3c
1f38
0f70
0ff0
07e0
07e0
03c0
03c0
03c0
03c0
03c0
03c0
03c0
03c0
ENDCHAR
STARTCHAR Z
ENCODING 90
SWIDTH 602 0
DWIDTH 15 0
BBX 13 18 1 0
BITMAP
7ff8
7ff8
7ff8
00f8
01f0
03e0
03e0
07c0
0f80
0f80
1f00
3e00
3e00
7c00
f800
fff8
fff8
fff8
ENDCHAR
STARTCHAR bracketleft
ENCODING 91
SWIDTH 602 0
DWIDTH 15 0
BBX 10 23 4 -4
BITMAP
ffc0
ffc0
ffc0
f000
f000
f000
f000
f000
f000
f000
f000
f000
f000
f000
f000
f000
f000
f000
f000
f000
ffc0
ffc0
ffc0
ENDCHAR
STARTCHAR backslash
ENCODING 92
SWIDTH 602 0
DWIDTH 15 0
BBX 15 23 0 -4
BITMAP
f000
7000
7800
3800
3c00
1c00
1e00
0e00
0f00
0700
0780
0380
03c0
01c0
01e0
00e0
00f0
0070
0078
0038
003c
001c
001e
ENDCHAR
STARTCHAR bracketright
ENCODING 93
SWIDTH 602 0
DWIDTH 15 0
BBX 10 23 1 -4
BITMAP
ffc0
ffc0
ffc0
03c0
03c0
03c0
03c0
03c0
03c0
03c0
03c0
03c0
03c0
03c0
03c0
03c0
03c0
03c0
03c0
03c0
ffc0
ffc0
ffc0
ENDCHAR
STARTCHAR asciicircum
ENCODING 94
SWIDTH 602 0
DWIDTH 15 0
BBX 13 15 1 3
BITMAP
0200
0200
0700
0700
0f80
0f80
0f80
1dc0
1dc0
38e0
38e0
78f0
7070
f078
e038
ENDCHAR
STARTCHAR underscore
ENCODING 95
SWIDTH 602 0
DWIDTH 15 0
BBX 15 3 0 -3
BITMAP
fffe
fffe
fffe
ENDCHAR
STARTCHAR quoteleft
ENCODING 96
SWIDTH 602 0
DWIDTH 15 0
BBX 4 8 5 11
BITMAP
70
f0
e0
e0
f0
f0
f0
f0
ENDCHAR
STARTCHAR a
ENCODING 97
SWIDTH 602 0
DWIDTH 15 0
BBX 13 13 1 0
BITMAP
1fc0
7fe0
7ff0
41f0
00f0
1ff0
7ff0
fff0
f0f0
f1f0
fff0
7ff8
3e78
ENDCHAR
STARTCHAR b
ENCODING 98
SWIDTH 602 0
DWIDTH 15 0
BBX 13 19 1 0
BITMAP
f000
f000
f000
f000
f000
f000
f3c0
f7f0
fff0
fff8
f8f8
f078
f078
f078
f078
f8f0
fff0
ffe0
e7c0
ENDCHAR
STARTCHAR c
ENCODING 99
SWIDTH 602 0
DWIDTH 15 0
BBX 13 13 1 0
BITMAP
0ff8
3ff8
7ff8
7c18
f800
f000
f000
f000
f800
7c08
7ff8
3ff8
0ff8
ENDCHAR
STARTCHAR d
ENCODING 100
SWIDTH 602 0
DWIDTH 15 0
BBX 13 19 1 0
BITMAP
0078
0078
0078
0078
0078
0078
1f78
3ff8
7ff8
78f8
f078
f078
f078
f078
f8f8
fff8
7ff8
7f78
1e78
ENDCHAR
STARTCHAR e
ENCODING 101
SWIDTH 602 0
DWIDTH 15 0
BBX 13 13 1 0
BITMAP
0fc0
3fe0
7ff0
7870
f078
fff8
fff8
fff8
f000
7808
7ff8
3ff8
0fe0
ENDCHAR
STARTCHAR f
ENCODING 102
SWIDTH 602 0
DWIDTH 15 0
BBX 13 19 2 0
BITMAP
03f0
0ff8
1ff8
1e08
1e00
1e00
fff0
fff0
fff0
1e00
1e00
1e00
1e00
1e00
1e00
1e00
1e00
1e00
1e00
ENDCHAR
STARTCHAR g
ENCODING 103
SWIDTH 602 0
DWIDTH 15 0
BBX 13 18 1 -5
BITMAP
1f38
3fb8
7ff8
78f8
f078
f078
f078
f078
f8f8
fff8
7ff8
7f78
1e78
0078
20f0
3ff0
7fe0
1fc0
ENDCHAR
STARTCHAR h
ENCODING 104
SWIDTH 602 0
DWIDTH 15 0
BBX 12 19 2 0
BITMAP
f000
f000
f000
f000
f000
f000
f3c0
f7e0
fff0
fff0
f8f0
f0f0
f0f0
f0f0
f0f0
f0f0
f0f0
f0f0
f0f0
ENDCHAR
STARTCHAR i
ENCODING 105
SWIDTH 602 0
DWIDTH 15 0
BBX 9 19 2 0
BITMAP
0780
0780
0780
0780
0000
0000
ff80
ff80
ff80
0780
0780
0780
0780
0780
0780
0780
0780
0780
0780
ENDCHAR
STARTCHAR j
ENCODING 106
SWIDTH 602 0
DWIDTH 15 0
BBX 10 24 1 -5
BITMAP
03c0
03c0
03c0
03c0
0000
0000
7fc0
7fc0
7fc0
03c0
03c0
03c0
03c0
03c0
03c0
03c0
03c0
03c0
03c0
03c0
87c0
ff80
ff80
7f00
ENDCHAR
STARTCHAR k
ENCODING 107
SWIDTH 602 0
DWIDTH 15 0
BBX 13 19 2 0
BITMAP
f000
f000
f000
f000
f000
f000
f0f0
f1e0
f1c0
f380
f780
ff00
ff80
f7c0
f7c0
f3e0
f1f0
f1f0
f0f8
ENDCHAR
STARTCHAR l
ENCODING 108
SWIDTH 602 0
DWIDTH 15 0
BBX 9 19 1 0
BITMAP
ff80
ff80
ff80
0780
0780
0780
0780
0780
0780
0780
0780
0780
0780
0780
0780
0780
0780
0780
0780
ENDCHAR
STARTCHAR m
ENCODING 109
SWIDTH 602 0
DWIDTH 15 0
BBX 14 13 0 0
BITMAP
f338
f7bc
fffc
f7bc
f7bc
f7bc
f7bc
f7bc
f7bc
f7bc
f7bc
f7bc
f7bc
ENDCHAR
STARTCHAR n
ENCODING 110
SWIDTH 602 0
DWIDTH 15 0
BBX 12 13 2 0
BITMAP
f3c0
f7e0
fff0
fff0
f8f0
f0f0
f0f0
f0f0
f0f0
f0f0
f0f0
f0f0
f0f0
ENDCHAR
STARTCHAR o
ENCODING 111
SWIDTH 602 0
DWIDTH 15 0
BBX 14 13 0 0
BITMAP
0fc0
3ff0
7ff8
7878
f03c
f03c
f03c
f03c
f03c
7878
7ff8
3ff0
0fc0
ENDCHAR
STARTCHAR p
ENCODING 112
SWIDTH 602 0
DWIDTH 15 0
BBX 13 18 1 -5
BITMAP
f3c0
f7f0
fff0
fff8
f8f8
f078
f078
f078
f078
f8f0
fff0
ffe0
f7c0
f000
f000
f000
f000
f000
ENDCHAR
STARTCHAR q
ENCODING 113
SWIDTH 602 0
DWIDTH 15 0
BBX 13 18 1 -5
BITMAP
1f38
3ff8
7ff8
78f8
f078
f078
f078
f078
f8f8
fff8
7ff8
7f78
1e78
0078
0078
0078
0078
0078
ENDCHAR
STARTCHAR r
ENCODING 114
SWIDTH 602 0
DWIDTH 15 0
BBX 11 13 3 0
BITMAP
f3e0
f7e0
ffe0
ffe0
fce0
f800
f000
f000
f000
f000
f000
f000
f000
ENDCHAR
STARTCHAR s
ENCODING 115
SWIDTH 602 0
DWIDTH 15 0
BBX 12 13 2 0
BITMAP
1fc0
7fe0
ffe0
f020
fe00
ffc0
7fe0
1ff0
03f0
c1f0
fff0
ffe0
7f80
ENDCHAR
STARTCHAR t
ENCODING 116
SWIDTH 602 0
DWIDTH 15 0
BBX 12 17 2 0
BITMAP
0e00
1e00
1e00
1e00
fff0
fff0
fff0
1e00
1e00
1e00
1e00
1e00
1e00
1e10
1ff0
0ff0
07e0
ENDCHAR
STARTCHAR u
ENCODING 117
SWIDTH 602 0
DWIDTH 15 0
BBX 12 13 1 0
BITMAP
f0f0
f0f0
f0f0
f0f0
f0f0
f0f0
f0f0
f0f0
f1f0
fff0
fff0
7ef0
3cf0
ENDCHAR
STARTCHAR v
ENCODING 118
SWIDTH 602 0
DWIDTH 15 0
BBX 14 13 1 0
BITMAP
f01c
f83c
7838
7838
3c70
3c70
3ef0
1ee0
1ee0
0fc0
0fc0
0fc0
0780
ENDCHAR
STARTCHAR w
ENCODING 119
SWIDTH 602 0
DWIDTH 15 0
BBX 15 13 0 0
BITMAP
f00e
f3ce
f3ce
7bcc
7fcc
7fec
7ffc
7ffc
7efc
3e78
3e78
3c78
3c38
ENDCHAR
STARTCHAR x
ENCODING 120
SWIDTH 602 0
DWIDTH 15 0
BBX 14 13 1 0
BITMAP
f83c
7c78
3ef0
1fe0
1fc0
0fc0
0fc0
0fc0
1fe0
3df0
79f0
70f8
f07c
ENDCHAR
STARTCHAR y
ENCODING 121
SWIDTH 602 0
DWIDTH 15 0
BBX 14 18 1 -5
BITMAP
f01c
f83c
7838
7c78
3c70
3e70
1ee0
1fe0
0fc0
0fc0
07c0
0780
0780
0700
0f00
7e00
7e00
7800
ENDCHAR
STARTCHAR z
ENCODING 122
SWIDTH 602 0
DWIDTH 15 0
BBX 12 13 2 0
BITMAP
fff0
fff0
fff0
03f0
07e0
0fc0
1f80
3f00
7e00
fc00
fff0
fff0
fff0
ENDCHAR
STARTCHAR braceleft
ENCODING 123
SWIDTH 602 0
DWIDTH 15 0
BBX 11 23 2 -4
BITMAP
07e0
1fe0
1fe0
1e00
1e00
0e00
0f00
0f00
0f00
0f00
fe00
f800
fe00
0f00
0f00
0f00
0f00
1e00
1e00
1e00
1fe0
1fe0
07e0
ENDCHAR
STARTCHAR bar
ENCODING 124
SWIDTH 602 0
DWIDTH 15 0
BBX 3 23 6 -4
BITMAP
e0
e0
e0
e0
e0
e0
e0
e0
e0
e0
e0
e0
e0
e0
e0
e0
e0
e0
e0
e0
e0
e0
e0
ENDCHAR
STARTCHAR braceright
ENCODING 125
SWIDTH 602 0
DWIDTH 15 0
BBX 11 23 2 -4
BITMAP
fc00
ff00
ff00
0f00
0f00
0f00
1e00
1e00
1e00
1e00
0fe0
03e0
0fe0
1e00
1e00
1e00
1e00
0e00
0f00
0f00
ff00
ff00
fc00
ENDCHAR
STARTCHAR asciitilde
ENCODING 126
SWIDTH 602 0
DWIDTH 15 0
BBX 13 5 1 4
BITMAP
3c38
7f38
fff8
e7f0
e1e0
ENDCHAR
STARTCHAR exclamdown
ENCODING 161
SWIDTH 602 0
DWIDTH 15 0
BBX 4 18 5 -5
BITMAP
f0
f0
f0
f0
00
70
70
70
70
70
f0
f0
f0
f0
f0
f0
f0
f0
ENDCHAR
STARTCHAR cent
ENCODING 162
SWIDTH 602 0
DWIDTH 15 0
BBX 11 18 2 0
BITMAP
0700
0700
0fe0
3fe0
7fe0
7800
f000
f000
f000
f000
f800
7c00
7fe0
3fe0
1fe0
0700
0700
0700
ENDCHAR
STARTCHAR sterling
ENCODING 163
SWIDTH 602 0
DWIDTH 15 0
BBX 11 18 2 0
BITMAP
0fe0
1fe0
3fe0
3c00
3c00
3c00
3c00
ff80
ff80
ff80
3c00
3c00
3c00
3800
3000
ffe0
ffe0
ffe0
ENDCHAR
STARTCHAR currency
ENCODING 164
SWIDTH 602 0
DWIDTH 15 0
BBX 13 14 1 2
BITMAP
6030
fff8
fff0
7fe0
78e0
7070
7070
7070
7070
78e0
7ff0
fff0
fff8
6010
ENDCHAR
STARTCHAR yen
ENCODING 165
SWIDTH 602 0
DWIDTH 15 0
BBX 16 18 0 0
BITMAP
f80f
7c1e
3e3c
1f78
0ff0
0ff0
07e0
1ff8
1ff8
1ff8
03c0
1ff8
1ff8
1ff8
03c0
03c0
03c0
03c0
ENDCHAR
STARTCHAR brokenbar
ENCODING 166
SWIDTH 602 0
DWIDTH 15 0
BBX 3 23 6 -4
BITMAP
e0
e0
e0
e0
e0
e0
e0
e0
e0
00
00
00
00
00
e0
e0
e0
e0
e0
e0
e0
e0
e0
ENDCHAR
STARTCHAR section
ENCODING 167
SWIDTH 602 0
DWIDTH 15 0
BBX 10 23 2 -5
BITMAP
1f80
7f80
ff80
f080
f000
f000
7c00
3f00
7f80
f7c0
e3c0
e1c0
f1c0
ffc0
7f80
3f00
1f80
07c0
03c0
87c0
ffc0
ff80
fe00
ENDCHAR
STARTCHAR dieresis
ENCODING 168
SWIDTH 602 0
DWIDTH 15 0
BBX 7 3 4 15
BITMAP
ee
ee
ee
ENDCHAR
STARTCHAR copyright
ENCODING 169
SWIDTH 602 0
DWIDTH 15 0
BBX 14 18 0 0
BITMAP
0fc0
1fe0
3ff0
7878
73b8
e79c
ee9c
ee1c
ee1c
ee1c
ee1c
ee9c
e79c
73bc
7878
3ff0
1fe0
0fc0
ENDCHAR
STARTCHAR ordfeminine
ENCODING 170
SWIDTH 602 0
DWIDTH 15 0
BBX 11 10 2 8
BITMAP
7f00
ffc0
ffc0
c1c0
3fc0
ffc0
e1c0
ffe0
ffe0
7ce0
ENDCHAR
STARTCHAR guillemotleft
ENCODING 171
SWIDTH 602 0
DWIDTH 15 0
BBX 14 11 1 1
BITMAP
0408
0f1c
1e38
3c78
78f0
fbe0
79f0
3cf0
1e78
0e3c
0418
ENDCHAR
STARTCHAR logicalnot
ENCODING 172
SWIDTH 602 0
DWIDTH 15 0
BBX 13 6 1 2
BITMAP
fff8
fff8
fff8
0038
0038
0038
ENDCHAR
STARTCHAR hyphen
ENCODING 173
SWIDTH 602 0
DWIDTH 15 0
BBX 10 3 2 6
BITMAP
ffc0
ffc0
ffc0
ENDCHAR
STARTCHAR registered
ENCODING 174
SWIDTH 602 0
DWIDTH 15 0
BBX 13 13 1 5
BITMAP
0f80
3fe0
7ff0
78f0
fff8
eff8
eff8
eff8
fff8
7ff0
7ff0
3fe0
0f80
ENDCHAR
STARTCHAR macron
ENCODING 175
SWIDTH 602 0
DWIDTH 15 0
BBX 7 3 4 15
BITMAP
fe
fe
fe
ENDCHAR
STARTCHAR degree
ENCODING 176
SWIDTH 602 0
DWIDTH 15 0
BBX 5 4 6 14
BITMAP
30
f8
78
30
ENDCHAR
STARTCHAR plusminus
ENCODING 177
SWIDTH 602 0
DWIDTH 15 0
BBX 13 13 1 0
BITMAP
0700
0700
0700
fff8
fff8
fff8
0700
0700
0000
0000
fff8
fff8
fff8
ENDCHAR
STARTCHAR twosuperior
ENCODING 178
SWIDTH 602 0
DWIDTH 15 0
BBX 5 9 -3 9
BITMAP
f0
88
08
08
10
20
40
c0
f8
ENDCHAR
STARTCHAR threesuperior
ENCODING 179
SWIDTH 602 0
DWIDTH 15 0
BBX 4 9 -3 9
BITMAP
e0
10
10
30
60
30
10
10
e0
ENDCHAR
STARTCHAR acute
ENCODING 180
SWIDTH 602 0
DWIDTH 15 0
BBX 6 4 4 15
BITMAP
3c
78
70
e0
ENDCHAR
STARTCHAR mu
ENCODING 181
SWIDTH 602 0
DWIDTH 15 0
BBX 12 17 1 -4
BITMAP
f0f0
f0f0
f0f0
f0f0
f0f0
f0f0
f0f0
f0f0
f9f0
fff0
fff0
fff0
fef0
f000
f000
f000
f000
ENDCHAR
STARTCHAR paragraph
ENCODING 182
SWIDTH 602 0
DWIDTH 15 0
BBX 11 22 1 -4
BITMAP
3fe0
7fe0
ffe0
ffe0
ffe0
ffe0
7fe0
7fe0
1fe0
07e0
07e0
07e0
07e0
07e0
07e0
07e0
07e0
07e0
07e0
07e0
07e0
07e0
ENDCHAR
STARTCHAR periodcentered
ENCODING 183
SWIDTH 602 0
DWIDTH 15 0
BBX 3 4 6 4
BITMAP
e0
e0
e0
e0
ENDCHAR
STARTCHAR cedilla
ENCODING 184
SWIDTH 602 0
DWIDTH 15 0
BBX 5 5 6 -5
BITMAP
60
f8
18
f8
f0
ENDCHAR
STARTCHAR onesuperior
ENCODING 185
SWIDTH 602 0
DWIDTH 15 0
BBX 5 9 -3 9
BITMAP
e0
20
20
20
20
20
20
20
f8
ENDCHAR
STARTCHAR ordmasculine
ENCODING 186
SWIDTH 602 0
DWIDTH 15 0
BBX 11 10 2 8
BITMAP
1f00
7fc0
7fc0
f1e0
e0e0
e0e0
f1e0
7fc0
7fc0
1f00
ENDCHAR
STARTCHAR guillemotright
ENCODING 187
SWIDTH 602 0
DWIDTH 15 0
BBX 14 11 0 1
BITMAP
6080
f1c0
79e0
3cf0
3e78
1f7c
3e78
7cf0
79e0
f3c0
6080
ENDCHAR
STARTCHAR onequarter
ENCODING 188
SWIDTH 602 0
DWIDTH 15 0
BBX 17 18 3 0
BITMAP
700780
100f00
101e00
103c00
103800
107800
10f000
10e000
7de000
03c200
038600
078e00
0f0a00
0e1200
1c1f00
3c0200
780200
f00200
ENDCHAR
STARTCHAR onehalf
ENCODING 189
SWIDTH 602 0
DWIDTH 15 0
BBX 17 18 3 0
BITMAP
700780
100f00
101e00
103c00
103800
107800
10f000
10e000
7de000
03de00
039100
078100
0f0100
0e0200
1c0400
3c0800
781800
f01f00
ENDCHAR
STARTCHAR threequarters
ENCODING 190
SWIDTH 602 0
DWIDTH 15 0
BBX 17 18 3 0
BITMAP
700780
080f00
081e00
183c00
303800
187800
08f000
08e000
71e000
03c200
038600
078e00
0f0a00
0e1200
1c1f00
3c0200
780200
f00200
ENDCHAR
STARTCHAR questiondown
ENCODING 191
SWIDTH 602 0
DWIDTH 15 0
BBX 12 18 1 -5
BITMAP
03c0
03c0
03c0
03c0
0000
03c0
03c0
07c0
0f80
3f00
7c00
f800
f030
f030
f830
fff0
7ff0
1fc0
ENDCHAR
STARTCHAR Agrave
ENCODING 192
SWIDTH 602 0
DWIDTH 15 0
BBX 15 23 0 0
BITMAP
0780
03c0
01c0
00e0
0000
03c0
07c0
07e0
07e0
0fe0
0ff0
0ef0
1cf0
1cf0
1c78
3878
3ff8
3ffc
7ffc
703c
703c
e01e
e01e
ENDCHAR
STARTCHAR Aacute
ENCODING 193
SWIDTH 602 0
DWIDTH 15 0
BBX 15 23 0 0
BITMAP
03c0
0780
0700
0e00
0000
03c0
07c0
07e0
07e0
0fe0
0ff0
0ef0
1cf0
1cf0
1c78
3878
3ff8
3ffc
7ffc
703c
703c
e01e
e01e
ENDCHAR
STARTCHAR Acircumflex
ENCODING 194
SWIDTH 602 0
DWIDTH 15 0
BBX 15 23 0 0
BITMAP
0780
0fc0
0fc0
1ce0
0000
03c0
07c0
07e0
07e0
0fe0
0ff0
0ef0
1cf0
1cf0
1c78
3878
3ff8
3ffc
7ffc
703c
703c
e01e
e01e
ENDCHAR
STARTCHAR Atilde
ENCODING 195
SWIDTH 602 0
DWIDTH 15 0
BBX 15 23 0 0
BITMAP
0730
0ff0
0ff0
0ce0
0000
03c0
07c0
07e0
07e0
0fe0
0ff0
0ef0
1cf0
1cf0
1c78
3878
3ff8
3ffc
7ffc
703c
703c
e01e
e01e
ENDCHAR
STARTCHAR Adieresis
ENCODING 196
SWIDTH 602 0
DWIDTH 15 0
BBX 15 22 0 0
BITMAP
0ee0
0ee0
0ee0
0000
03c0
07c0
07e0
07e0
0fe0
0ff0
0ef0
1cf0
1cf0
1c78
3878
3ff8
3ffc
7ffc
703c
703c
e01e
e01e
ENDCHAR
STARTCHAR Aring
ENCODING 197
SWIDTH 602 0
DWIDTH 15 0
BBX 15 23 0 0
BITMAP
0180
0240
0240
0180
0000
03c0
07c0
07e0
07e0
0fe0
0ff0
0ef0
1cf0
1cf0
1c78
3878
3ff8
3ffc
7ffc
703c
703c
e01e
e01e
ENDCHAR
STARTCHAR AE
ENCODING 198
SWIDTH 602 0
DWIDTH 15 0
BBX 16 18 1 0
BITMAP
01ff
01ff
03ff
03f0
03f0
07f0
07f0
0ffe
0efe
0efe
1cf0
1ff0
3ff0
3ff0
38f0
78ff
70ff
f0ff
ENDCHAR
STARTCHAR Ccedilla
ENCODING 199
SWIDTH 602 0
DWIDTH 15 0
BBX 14 23 0 -5
BITMAP
03fc
1ffc
3ffc
7e0c
7c00
7800
f000
f000
f000
f000
f000
f000
7800
7c00
7e04
3ffc
1ffc
03f0
0300
07c0
00c0
07c0
0780
ENDCHAR
STARTCHAR Egrave
ENCODING 200
SWIDTH 602 0
DWIDTH 15 0
BBX 12 23 2 0
BITMAP
1e00
0f00
0700
0380
0000
ffe0
ffe0
ffe0
f000
f000
f000
f000
ffc0
ffc0
ffc0
f000
f000
f000
f000
f000
fff0
fff0
fff0
ENDCHAR
STARTCHAR Eacute
ENCODING 201
SWIDTH 602 0
DWIDTH 15 0
BBX 12 23 2 0
BITMAP
0780
0f00
0e00
1c00
0000
ffe0
ffe0
ffe0
f000
f000
f000
f000
ffc0
ffc0
ffc0
f000
f000
f000
f000
f000
fff0
fff0
fff0
ENDCHAR
STARTCHAR Ecircumflex
ENCODING 202
SWIDTH 602 0
DWIDTH 15 0
BBX 12 23 2 0
BITMAP
0f00
1f80
1f80
39c0
0000
ffe0
ffe0
ffe0
f000
f000
f000
f000
ffc0
ffc0
ffc0
f000
f000
f000
f000
f000
fff0
fff0
fff0
ENDCHAR
STARTCHAR Edieresis
ENCODING 203
SWIDTH 602 0
DWIDTH 15 0
BBX 12 22 2 0
BITMAP
3b80
3b80
3b80
0000
ffe0
ffe0
ffe0
f000
f000
f000
f000
ffc0
ffc0
ffc0
f000
f000
f000
f000
f000
fff0
fff0
fff0
ENDCHAR
STARTCHAR Igrave
ENCODING 204
SWIDTH 602 0
DWIDTH 15 0
BBX 12 23 1 0
BITMAP
1e00
0f00
0700
0380
0000
fff0
fff0
fff0
0f00
0f00
0f00
0f00
0f00
0f00
0f00
0f00
0f00
0f00
0f00
0f00
fff0
fff0
fff0
ENDCHAR
STARTCHAR Iacute
ENCODING 205
SWIDTH 602 0
DWIDTH 15 0
BBX 12 23 1 0
BITMAP
0780
0f00
0e00
1c00
0000
fff0
fff0
fff0
0f00
0f00
0f00
0f00
0f00
0f00
0f00
0f00
0f00
0f00
0f00
0f00
fff0
fff0
fff0
ENDCHAR
STARTCHAR Icircumflex
ENCODING 206
SWIDTH 602 0
DWIDTH 15 0
BBX 12 23 1 0
BITMAP
0f00
1f80
1f80
39c0
0000
fff0
fff0
fff0
0f00
0f00
0f00
0f00
0f00
0f00
0f00
0f00
0f00
0f00
0f00
0f00
fff0
fff0
fff0
ENDCHAR
STARTCHAR Idieresis
ENCODING 207
SWIDTH 602 0
DWIDTH 15 0
BBX 12 22 1 0
BITMAP
3b80
3b80
3b80
0000
fff0
fff0
fff0
0f00
0f00
0f00
0f00
0f00
0f00
0f00
0f00
0f00
0f00
0f00
0f00
fff0
fff0
fff0
ENDCHAR
STARTCHAR Eth
ENCODING 208
SWIDTH 602 0
DWIDTH 15 0
BBX 14 18 0 0
BITMAP
7fc0
7ff0
7ff8
78f8
787c
783c
783c
fe3c
fe3c
fe3c
783c
783c
783c
7878
78f8
7ff0
7fe0
7f80
ENDCHAR
STARTCHAR Ntilde
ENCODING 209
SWIDTH 602 0
DWIDTH 15 0
BBX 12 23 1 0
BITMAP
1cc0
3fc0
3fc0
3380
0000
f070
f870
f870
fc70
fc70
fe70
fe70
ff70
ef70
eff0
e7f0
e7f0
e3f0
e3f0
e1f0
e1f0
e1f0
e0f0
ENDCHAR
STARTCHAR Ograve
ENCODING 210
SWIDTH 602 0
DWIDTH 15 0
BBX 14 23 1 0
BITMAP
0f00
0780
0380
01c0
0000
0fc0
1fe0
3ff0
7878
7878
f03c
f03c
f03c
f03c
f03c
f03c
f03c
f03c
7878
7878
3ff0
1fe0
0fc0
ENDCHAR
STARTCHAR Oacute
ENCODING 211
SWIDTH 602 0
DWIDTH 15 0
BBX 14 23 1 0
BITMAP
03c0
0780
0700
0e00
0000
0fc0
1fe0
3ff0
7878
7878
f03c
f03c
f03c
f03c
f03c
f03c
f03c
f03c
7878
7878
3ff0
1fe0
0fc0
ENDCHAR
STARTCHAR Ocircumflex
ENCODING 212
SWIDTH 602 0
DWIDTH 15 0
BBX 14 23 1 0
BITMAP
0780
0fc0
0fc0
1ce0
0000
0fc0
1fe0
3ff0
7878
7878
f03c
f03c
f03c
f03c
f03c
f03c
f03c
f03c
7878
7878
3ff0
1fe0
0fc0
ENDCHAR
STARTCHAR Otilde
ENCODING 213
SWIDTH 602 0
DWIDTH 15 0
BBX 14 23 1 0
BITMAP
0e60
1fe0
1fe0
19c0
0000
0fc0
1fe0
3ff0
7878
7878
f03c
f03c
f03c
f03c
f03c
f03c
f03c
f03c
7878
7878
3ff0
1fe0
0fc0
ENDCHAR
STARTCHAR Odieresis
ENCODING 214
SWIDTH 602 0
DWIDTH 15 0
BBX 14 22 1 0
BITMAP
1dc0
1dc0
1dc0
0000
0fc0
1fe0
3ff0
7878
7878
f03c
f03c
f03c
f03c
f03c
f03c
f03c
f03c
7878
7878
3ff0
1fe0
0fc0
ENDCHAR
STARTCHAR multiply
ENCODING 215
SWIDTH 602 0
DWIDTH 15 0
BBX 13 13 1 0
BITMAP
6030
f078
f8f8
7df0
3fe0
1fc0
0f80
1fc0
3fe0
7df0
f8f8
f078
6030
ENDCHAR
STARTCHAR Oslash
ENCODING 216
SWIDTH 602 0
DWIDTH 15 0
BBX 14 18 1 0
BITMAP
0fdc
1ff8
3ff0
78f8
78f8
f1fc
f1fc
f3fc
f7bc
f73c
ff3c
fe3c
fc3c
7c78
7c78
3ff0
7fe0
efc0
ENDCHAR
STARTCHAR Ugrave
ENCODING 217
SWIDTH 602 0
DWIDTH 15 0
BBX 12 23 1 0
BITMAP
1e00
0f00
0700
0380
0000
f0f0
f0f0
f0f0
f0f0
f0f0
f0f0
f0f0
f0f0
f0f0
f0f0
f0f0
f0f0
f0f0
f0f0
f9f0
7fe0
7fe0
1f80
ENDCHAR
STARTCHAR Uacute
ENCODING 218
SWIDTH 602 0
DWIDTH 15 0
BBX 12 23 1 0
BITMAP
0780
0f00
0e00
1c00
0000
f0f0
f0f0
f0f0
f0f0
f0f0
f0f0
f0f0
f0f0
f0f0
f0f0
f0f0
f0f0
f0f0
f0f0
f9f0
7fe0
7fe0
1f80
ENDCHAR
STARTCHAR Ucircumflex
ENCODING 219
SWIDTH 602 0
DWIDTH 15 0
BBX 12 23 1 0
BITMAP
0f00
1f80
1f80
39c0
0000
f0f0
f0f0
f0f0
f0f0
f0f0
f0f0
f0f0
f0f0
f0f0
f0f0
f0f0
f0f0
f0f0
f0f0
f9f0
7fe0
7fe0
1f80
ENDCHAR
STARTCHAR Udieresis
ENCODING 220
SWIDTH 602 0
DWIDTH 15 0
BBX 12 22 1 0
BITMAP
3b80
3b80
3b80
0000
f0f0
f0f0
f0f0
f0f0
f0f0
f0f0
f0f0
f0f0
f0f0
f0f0
f0f0
f0f0
f0f0
f0f0
f9f0
7fe0
7fe0
1f80
ENDCHAR
STARTCHAR Yacute
ENCODING 221
SWIDTH 602 0
DWIDTH 15 0
BBX 16 23 0 0
BITMAP
01e0
03c0
0380
0700
0000
f80f
780e
7c1e
3c1c
3e3c
1f38
0f70
0ff0
07e0
07e0
03c0
03c0
03c0
03c0
03c0
03c0
03c0
03c0
ENDCHAR
STARTCHAR Thorn
ENCODING 222
SWIDTH 602 0
DWIDTH 15 0
BBX 13 18 2 0
BITMAP
f000
f000
f000
ffc0
fff0
fff8
f0f8
f078
f078
f078
f0f8
fff0
ffe0
ff80
f000
f000
f000
f000
ENDCHAR
STARTCHAR germandbls
ENCODING 223
SWIDTH 602 0
DWIDTH 15 0
BBX 13 19 1 0
BITMAP
1f80
7fc0
7fe0
f1e0
f1e0
f1c0
f380
f380
f380
f3c0
f3e0
f1f0
f0f8
f0f8
f078
f478
f7f8
f7f0
f3e0
ENDCHAR
STARTCHAR agrave
ENCODING 224
SWIDTH 602 0
DWIDTH 15 0
BBX 13 18 1 0
BITMAP
1e00
0f00
0700
0380
0000
1fc0
7fe0
7ff0
41f0
00f0
1ff0
7ff0
fff0
f0f0
f1f0
fff0
7ff8
3e78
ENDCHAR
STARTCHAR aacute
ENCODING 225
SWIDTH 602 0
DWIDTH 15 0
BBX 13 18 1 0
BITMAP
0780
0f00
0e00
1c00
0000
1fc0
7fe0
7ff0
41f0
00f0
1ff0
7ff0
fff0
f0f0
f1f0
fff0
7ff8
3e78
ENDCHAR
STARTCHAR acircumflex
ENCODING 226
SWIDTH 602 0
DWIDTH 15 0
BBX 13 18 1 0
BITMAP
0f00
1f80
1f80
39c0
0000
1fc0
7fe0
7ff0
41f0
00f0
1ff0
7ff0
fff0
f0f0
f1f0
fff0
7ff8
3e78
ENDCHAR
STARTCHAR atilde
ENCODING 227
SWIDTH 602 0
DWIDTH 15 0
BBX 13 18 1 0
BITMAP
1cc0
3fc0
3fc0
3380
0000
1fc0
7fe0
7ff0
41f0
00f0
1ff0
7ff0
fff0
f0f0
f1f0
fff0
7ff8
3e78
ENDCHAR
STARTCHAR adieresis
ENCODING 228
SWIDTH 602 0
DWIDTH 15 0
BBX 13 17 1 0
BITMAP
1dc0
1dc0
1dc0
0000
1fc0
7fe0
7ff0
41f0
00f0
1ff0
7ff0
fff0
f0f0
f1f0
fff0
7ff8
3e78
ENDCHAR
STARTCHAR aring
ENCODING 229
SWIDTH 602 0
DWIDTH 15 0
BBX 13 18 1 0
BITMAP
0600
0900
0900
0600
0000
1fc0
7fe0
7ff0
41f0
00f0
1ff0
7ff0
fff0
f0f0
f1f0
fff0
7ff8
3e78
ENDCHAR
STARTCHAR ae
ENCODING 230
SWIDTH 602 0
DWIDTH 15 0
BBX 14 13 0 0
BITMAP
3e70
7ff8
7ff8
43bc
03bc
1ffc
7ffc
fffc
f380
f384
fffc
7dfc
38f8
ENDCHAR
STARTCHAR ccedilla
ENCODING 231
SWIDTH 602 0
DWIDTH 15 0
BBX 13 18 1 -5
BITMAP
0ff8
3ff8
7ff8
7c18
f800
f000
f000
f000
f800
7c08
7ff8
3ff8
0ff8
0600
0f80
0180
0f80
0f00
ENDCHAR
STARTCHAR egrave
ENCODING 232
SWIDTH 602 0
DWIDTH 15 0
BBX 13 18 1 0
BITMAP
1e00
0f00
0700
0380
0000
0fc0
3fe0
7ff0
7870
f078
fff8
fff8
fff8
f000
7808
7ff8
3ff8
0fe0
ENDCHAR
STARTCHAR eacute
ENCODING 233
SWIDTH 602 0
DWIDTH 15 0
BBX 13 18 1 0
BITMAP
0780
0f00
0e00
1c00
0000
0fc0
3fe0
7ff0
7870
f078
fff8
fff8
fff8
f000
7808
7ff8
3ff8
0fe0
ENDCHAR
STARTCHAR ecircumflex
ENCODING 234
SWIDTH 602 0
DWIDTH 15 0
BBX 13 18 1 0
BITMAP
0f00
1f80
1f80
39c0
0000
0fc0
3fe0
7ff0
7870
f078
fff8
fff8
fff8
f000
7808
7ff8
3ff8
0fe0
ENDCHAR
STARTCHAR edieresis
ENCODING 235
SWIDTH 602 0
DWIDTH 15 0
BBX 13 17 1 0
BITMAP
1dc0
1dc0
1dc0
0000
0fc0
3fe0
7ff0
7870
f078
fff8
fff8
fff8
f000
7808
7ff8
3ff8
0fe0
ENDCHAR
STARTCHAR igrave
ENCODING 236
SWIDTH 602 0
DWIDTH 15 0
BBX 9 18 2 0
BITMAP
3c00
1e00
0e00
0700
0000
ff80
ff80
ff80
0780
0780
0780
0780
0780
0780
0780
0780
0780
0780
ENDCHAR
STARTCHAR iacute
ENCODING 237
SWIDTH 602 0
DWIDTH 15 0
BBX 9 18 2 0
BITMAP
0f00
1e00
1c00
3800
0000
ff80
ff80
ff80
0780
0780
0780
0780
0780
0780
0780
0780
0780
0780
ENDCHAR
STARTCHAR icircumflex
ENCODING 238
SWIDTH 602 0
DWIDTH 15 0
BBX 9 18 2 0
BITMAP
1e00
3f00
3f00
7380
0000
ff80
ff80
ff80
0780
0780
0780
0780
0780
0780
0780
0780
0780
0780
ENDCHAR
STARTCHAR idieresis
ENCODING 239
SWIDTH 602 0
DWIDTH 15 0
BBX 9 17 2 0
BITMAP
3b80
3b80
3b80
0000
ff80
ff80
ff80
0780
0780
0780
0780
0780
0780
0780
0780
0780
0780
ENDCHAR
STARTCHAR eth
ENCODING 240
SWIDTH 602 0
DWIDTH 15 0
BBX 14 19 0 0
BITMAP
fc60
ffe0
ffc0
0fc0
0de0
09f0
0ff8
3ff8
7ffc
787c
f03c
f03c
f03c
f03c
f07c
7878
7ff0
3fe0
0fc0
ENDCHAR
STARTCHAR ntilde
ENCODING 241
SWIDTH 602 0
DWIDTH 15 0
BBX 12 18 2 0
BITMAP
1cc0
3fc0
3fc0
3380
0000
f3c0
f7e0
fff0
fff0
f8f0
f0f0
f0f0
f0f0
f0f0
f0f0
f0f0
f0f0
f0f0
ENDCHAR
STARTCHAR ograve
ENCODING 242
SWIDTH 602 0
DWIDTH 15 0
BBX 14 18 0 0
BITMAP
0f00
0780
0380
01c0
0000
0fc0
3ff0
7ff8
7878
f03c
f03c
f03c
f03c
f03c
7878
7ff8
3ff0
0fc0
ENDCHAR
STARTCHAR oacute
ENCODING 243
SWIDTH 602 0
DWIDTH 15 0
BBX 14 18 0 0
BITMAP
03c0
0780
0700
0e00
0000
0fc0
3ff0
7ff8
7878
f03c
f03c
f03c
f03c
f03c
7878
7ff8
3ff0
0fc0
ENDCHAR
STARTCHAR ocircumflex
ENCODING 244
SWIDTH 602 0
DWIDTH 15 0
BBX 14 18 0 0
BITMAP
0780
0fc0
0fc0
1ce0
0000
0fc0
3ff0
7ff8
7878
f03c
f03c
f03c
f03c
f03c
7878
7ff8
3ff0
0fc0
ENDCHAR
STARTCHAR otilde
ENCODING 245
SWIDTH 602 0
DWIDTH 15 0
BBX 14 18 0 0
BITMAP
0e60
1fe0
1fe0
19c0
0000
0fc0
3ff0
7ff8
7878
f03c
f03c
f03c
f03c
f03c
7878
7ff8
3ff0
0fc0
ENDCHAR
STARTCHAR odieresis
ENCODING 246
SWIDTH 602 0
DWIDTH 15 0
BBX 14 17 0 0
BITMAP
1dc0
1dc0
1dc0
0000
0fc0
3ff0
7ff8
7878
f03c
f03c
f03c
f03c
f03c
7878
7ff8
3ff0
0fc0
ENDCHAR
STARTCHAR divide
ENCODING 247
SWIDTH 602 0
DWIDTH 15 0
BBX 14 13 0 0
BITMAP
0780
0780
0780
0780
0000
fffc
fffc
fffc
0000
0780
0780
0780
0780
ENDCHAR
STARTCHAR oslash
ENCODING 248
SWIDTH 602 0
DWIDTH 15 0
BBX 14 13 0 0
BITMAP
0ffc
3ff8
7ff8
78f8
f1fc
f3fc
f7bc
ff3c
fe3c
7c78
7ff8
7ff0
ffc0
ENDCHAR
STARTCHAR ugrave
ENCODING 249
SWIDTH 602 0
DWIDTH 15 0
BBX 12 18 1 0
BITMAP
1e00
0f00
0700
0380
0000
f0f0
f0f0
f0f0
f0f0
f0f0
f0f0
f0f0
f0f0
f1f0
fff0
fff0
7ef0
3cf0
ENDCHAR
STARTCHAR uacute
ENCODING 250
SWIDTH 602 0
DWIDTH 15 0
BBX 12 18 1 0
BITMAP
0780
0f00
0e00
1c00
0000
f0f0
f0f0
f0f0
f0f0
f0f0
f0f0
f0f0
f0f0
f1f0
fff0
fff0
7ef0
3cf0
ENDCHAR
STARTCHAR ucircumflex
ENCODING 251
SWIDTH 602 0
DWIDTH 15 0
BBX 12 18 1 0
BITMAP
0f00
1f80
1f80
39c0
0000
f0f0
f0f0
f0f0
f0f0
f0f0
f0f0
f0f0
f0f0
f1f0
fff0
fff0
7ef0
3cf0
ENDCHAR
STARTCHAR udieresis
ENCODING 252
SWIDTH 602 0
DWIDTH 15 0
BBX 12 17 1 0
BITMAP
1dc0
1dc0
1dc0
0000
f0f0
f0f0
f0f0
f0f0
f0f0
f0f0
f0f0
f0f0
f1f0
fff0
fff0
7ef0
3cf0
ENDCHAR
STARTCHAR yacute
ENCODING 253
SWIDTH 602 0
DWIDTH 15 0
BBX 14 23 1 -5
BITMAP
03c0
0780
0700
0e00
0000
f01c
f83c
7838
7c78
3c70
3e70
1ee0
1fe0
0fc0
0fc0
07c0
0780
0780
0700
0f00
7e00
7e00
7800
ENDCHAR
STARTCHAR thorn
ENCODING 254
SWIDTH 602 0
DWIDTH 15 0
BBX 13 22 1 -5
BITMAP
f000
f000
f000
f000
f3c0
f7f0
fff0
fff8
f8f8
f078
f078
f078
f078
f8f0
fff0
ffe0
f7c0
f000
f000
f000
f000
f000
ENDCHAR
STARTCHAR ydieresis
ENCODING 255
SWIDTH 602 0
DWIDTH 15 0
BBX 14 22 1 -5
BITMAP
1dc0
1dc0
1dc0
0000
f01c
f83c
7838
7c78
3c70
3e70
1ee0
1fe0
0fc0
0fc0
07c0
0780
0780
0700
0f00
7e00
7e00
7800
ENDCHAR
ENDFONT
